{"title":"Harry.Potter.and.the.Deathly.Hallows.Part.2.2011.DVDRip.XviD.AC3","uid":6756990,"size":1685994575,"categoryP":"video","categoryS":"movies","magnet":"?xt=urn:btih:46d0f980a732813a9643acb17aa957764ee0dd8b&amp;dn=Harry.Potter.and.the.Deathly.Hallows.Part.2.2011.DVDRip.XviD.AC3&amp;tr=udp%3A%2F%2Ftracker.openbittorrent.com%3A80&amp;tr=udp%3A%2F%2Fopen.demonii.com%3A1337&amp;tr=udp%3A%2F%2Ftracker.coppersurfer.tk%3A6969&amp;tr=udp%3A%2F%2Fexodus.desync.com%3A6969","seeders":0,"leechers":0,"uploader":"TvTeam","files":7,"time":1319070362,"description":". \n &lt;a href=&quot;\nhttp://www.torrenting.com&quot; rel=&quot;nofollow&quot; target=&quot;_NEW&quot;&gt;\nhttp://www.torrenting.com&lt;/a&gt;          :     Once &amp; For all ;)\n\n\n               www . Torrenting . Com \n\n(((((((((((((= Enjoy No RAR releases =))))))))))))))))))))\n\n\n...................................NFO:....................................\n\n.[img]http://img7.imageshack.us/img7/7316/harrypotterdeathlyhalloo.jpg[/img]\n\nHarry.Potter.and.the.Deathly.Hallows.Part.2.2011.DVDRip.XviD.AC3-EMBER &lt;a href=&quot;\nhttp://www.imdb.com/title/tt1201607/&quot; rel=&quot;nofollow&quot; target=&quot;_NEW&quot;&gt;\nhttp://www.imdb.com/title/tt1201607/&lt;/a&gt; \n\nPlot:\nThe final chapter begins as Harry, Ron, and Hermione continue their quest of finding and destroying the \nDark Lord's three remaining Horcruxes, the magical items responsible for his immortality\n\nSource                           : Me Bro ;) cheers r kid\n\nGeneral\nFormat                           : AVI\nFormat/Info                      : Audio Video Interleave\nFile size                        : 1.56 GiB\nDuration                         : 2h 5mn\nOverall bit rate                 : 1 784 Kbps\nWriting application              : VirtualDubMod 1.5.10.2 (build 2540/release)\nWriting library                  : VirtualDubMod build 2540/release\n\nVideo\nID                               : 0\nFormat                           : MPEG-4 Visual\nFormat profile                   : Advanced Simple@L5\nFormat settings, BVOP            : 2\nFormat settings, QPel            : No\nFormat settings, GMC             : No warppoints\nFormat settings, Matrix          : Default (H.263)\nMuxing mode                      : Packed bitstream\nCodec ID                         : XVID\nCodec ID/Hint                    : XviD\nDuration                         : 2h 5mn\nBit rate                         : 1 548 Kbps\nWidth                            : 720 pixels\nHeight                           : 304 pixels\nDisplay aspect ratio             : 2.35:1\nFrame rate                       : 29.970 fps\nColor space                      : YUV\nChroma subsampling               : 4:2:0\nBit depth                        : 8 bits\nScan type                        : Progressive\nCompression mode                 : Lossy\nBits/(Pixel*Frame)               : 0.236\nStream size                      : 1.35 GiB (87%)\nWriting library                  : XviD 64\n\nAudio\nID                               : 1\nFormat                           : AC-3\nFormat/Info                      : Audio Coding 3\nMode extension                   : CM (complete main)\nCodec ID                         : 2000\nDuration                         : 2h 5mn\nBit rate mode                    : Constant\nBit rate                         : 224 Kbps\nChannel(s)                       : 2 channels\nChannel positions                : Front: L R\nSampling rate                    : 48.0 KHz\nBit depth                        : 16 bits\nCompression mode                 : Lossy\nStream size                      : 200 MiB (13%)\nAlignment                        : Split accross interleaves\nInterleave, duration             : 33 ms (1.00 video frame)\nInterleave, preload duration     : 500 ms\n\nNotes\ngot passed this by me bro sometime ago but had too much on me plate to do it sooner.\nNot Great source so dont expect miracles\nCropped, resized, degained,added couple very strong denoisers and a smoother scipt, added colour, contrast, brightness\nchanged RGB levels, added mpeg deblocker to help help get smooth video, and then added as much sharpness as possible \nwithout distorting the video, all in all used 14 filters, id say its as good as going to get before retail ;)\n\nScreens\n[img]http://img822.imageshack.us/img822/4972/89868452.png[/img]\n[img]http://img834.imageshack.us/img834/92/83628290.png[/img]\n[img]http://img200.imageshack.us/img200/2121/89792412.png[/img]\n[img]http://img836.imageshack.us/img836/3295/13259924.png[/img]\n[img]http://img412.imageshack.us/img412/9596/59223857.png[/img]\n[img]http://img411.imageshack.us/img411/601/57347755.png[/img]\n\n\nGreetz to \nSHiRK, SHK, LKRG, UnKnOwN, IMAGiNE, SiC, BHRG, TaRiQ786, FLAWL3SS, Rx, Hive-CM8\n\nSAMURAi, ViSUALiSE, RemixHD, iNSANE, DTRG\n\nAnd to all other groups past and present\n\nGot something to offer?\n\nthen you should know where to find us","torrent":{"xt":"urn:btih:46d0f980a732813a9643acb17aa957764ee0dd8b","amp;dn":"Harry.Potter.and.the.Deathly.Hallows.Part.2.2011.DVDRip.XviD.AC3","amp;tr":["udp%3A%2F%2Ftracker.openbittorrent.com%3A80","udp%3A%2F%2Fopen.demonii.com%3A1337","udp%3A%2F%2Ftracker.coppersurfer.tk%3A6969","udp%3A%2F%2Fexodus.desync.com%3A6969"],"infoHash":"46d0f980a732813a9643acb17aa957764ee0dd8b","infoHashBuffer":{"type":"Buffer","data":[70,208,249,128,167,50,129,58,150,67,172,177,122,169,87,118,78,224,221,139]},"announce":[],"urlList":[]}}